<svg xmlns="http://www.w3.org/2000/svg" xmlns:xlink="http://www.w3.org/1999/xlink" width="1080" zoomAndPan="magnify" viewBox="0 0 810 809.999993" height="1080" preserveAspectRatio="xMidYMid meet" version="1.0"><defs><clipPath id="37c94344bb"><path d="M 135 52.917969 L 178 52.917969 L 178 164 L 135 164 Z M 135 52.917969 " clip-rule="nonzero"/></clipPath><clipPath id="b581a8e366"><path d="M 260 52.917969 L 302 52.917969 L 302 164 L 260 164 Z M 260 52.917969 " clip-rule="nonzero"/></clipPath><clipPath id="34b0a4c1b7"><path d="M 384 52.917969 L 426 52.917969 L 426 164 L 384 164 Z M 384 52.917969 " clip-rule="nonzero"/></clipPath><clipPath id="3233b89dbc"><path d="M 508 52.917969 L 551 52.917969 L 551 164 L 508 164 Z M 508 52.917969 " clip-rule="nonzero"/></clipPath><clipPath id="05c6908348"><path d="M 52.917969 108 L 757.167969 108 L 757.167969 233 L 52.917969 233 Z M 52.917969 108 " clip-rule="nonzero"/></clipPath><clipPath id="cfc1e46d84"><path d="M 52.917969 260 L 757.167969 260 L 757.167969 757.164062 L 52.917969 757.164062 Z M 52.917969 260 " clip-rule="nonzero"/></clipPath><clipPath id="a70db25d8d"><path d="M 632 52.917969 L 675 52.917969 L 675 164 L 632 164 Z M 632 52.917969 " clip-rule="nonzero"/></clipPath></defs><g clip-path="url(#37c94344bb)"><path fill="#000000" d="M 156.480469 163.386719 C 167.902344 163.386719 177.195312 154.09375 177.195312 142.671875 L 177.195312 73.628906 C 177.195312 62.207031 167.902344 52.917969 156.480469 52.917969 C 145.0625 52.917969 135.769531 62.207031 135.769531 73.628906 L 135.769531 142.671875 C 135.769531 154.09375 145.0625 163.386719 156.480469 163.386719 Z M 156.480469 163.386719 " fill-opacity="1" fill-rule="nonzero"/></g><g clip-path="url(#b581a8e366)"><path fill="#000000" d="M 280.761719 163.386719 C 292.183594 163.386719 301.476562 154.09375 301.476562 142.671875 L 301.476562 73.628906 C 301.476562 62.207031 292.183594 52.917969 280.761719 52.917969 C 269.339844 52.917969 260.046875 62.207031 260.046875 73.628906 L 260.046875 142.671875 C 260.046875 154.09375 269.339844 163.386719 280.761719 163.386719 Z M 280.761719 163.386719 " fill-opacity="1" fill-rule="nonzero"/></g><g clip-path="url(#34b0a4c1b7)"><path fill="#000000" d="M 405.042969 163.386719 C 416.460938 163.386719 425.753906 154.09375 425.753906 142.671875 L 425.753906 73.628906 C 425.753906 62.207031 416.460938 52.917969 405.042969 52.917969 C 393.621094 52.917969 384.328125 62.207031 384.328125 73.628906 L 384.328125 142.671875 C 384.328125 154.09375 393.621094 163.386719 405.042969 163.386719 Z M 405.042969 163.386719 " fill-opacity="1" fill-rule="nonzero"/></g><g clip-path="url(#3233b89dbc)"><path fill="#000000" d="M 529.320312 163.386719 C 540.742188 163.386719 550.035156 154.09375 550.035156 142.671875 L 550.035156 73.628906 C 550.035156 62.207031 540.742188 52.917969 529.320312 52.917969 C 517.898438 52.917969 508.605469 62.207031 508.605469 73.628906 L 508.605469 142.671875 C 508.605469 154.09375 517.898438 163.386719 529.320312 163.386719 Z M 529.320312 163.386719 " fill-opacity="1" fill-rule="nonzero"/></g><g clip-path="url(#05c6908348)"><path fill="#000000" d="M 701.929688 108.152344 L 701.929688 142.671875 C 701.929688 169.324219 680.25 191.003906 653.601562 191.003906 C 626.949219 191.003906 605.269531 169.324219 605.269531 142.671875 L 605.269531 108.152344 L 577.652344 108.152344 L 577.652344 142.671875 C 577.652344 169.324219 555.96875 191.003906 529.320312 191.003906 C 502.671875 191.003906 480.988281 169.324219 480.988281 142.671875 L 480.988281 108.152344 L 453.371094 108.152344 L 453.371094 142.671875 C 453.371094 169.324219 431.691406 191.003906 405.042969 191.003906 C 378.390625 191.003906 356.710938 169.324219 356.710938 142.671875 L 356.710938 108.152344 L 329.09375 108.152344 L 329.09375 142.671875 C 329.09375 169.324219 307.410156 191.003906 280.761719 191.003906 C 254.113281 191.003906 232.429688 169.324219 232.429688 142.671875 L 232.429688 108.152344 L 204.8125 108.152344 L 204.8125 142.671875 C 204.8125 169.324219 183.132812 191.003906 156.480469 191.003906 C 129.832031 191.003906 108.152344 169.324219 108.152344 142.671875 L 108.152344 108.152344 C 77.695312 108.152344 52.917969 132.929688 52.917969 163.386719 L 52.917969 232.429688 C 128.578125 232.429688 664.625 232.429688 757.167969 232.429688 L 757.167969 163.386719 C 757.167969 132.929688 732.386719 108.152344 701.929688 108.152344 Z M 701.929688 108.152344 " fill-opacity="1" fill-rule="nonzero"/></g><path fill="#000000" d="M 135.769531 260.046875 L 135.769531 674.3125 L 674.3125 674.3125 L 674.3125 260.046875 Z M 543.128906 632.886719 C 543.128906 640.511719 536.945312 646.695312 529.320312 646.695312 L 280.761719 646.695312 C 273.136719 646.695312 266.953125 640.511719 266.953125 632.886719 L 266.953125 577.652344 C 266.953125 520.160156 302.273438 470.769531 352.347656 450.019531 C 329.910156 433.6875 315.285156 407.238281 315.285156 377.421875 C 315.285156 327.929688 355.550781 287.667969 405.042969 287.667969 C 454.535156 287.667969 494.796875 327.929688 494.796875 377.421875 C 494.796875 407.238281 480.171875 433.6875 457.734375 450.019531 C 507.808594 470.769531 543.128906 520.160156 543.128906 577.652344 Z M 543.128906 632.886719 " fill-opacity="1" fill-rule="nonzero"/><path fill="#000000" d="M 405.042969 467.179688 C 344.128906 467.179688 294.570312 516.738281 294.570312 577.652344 L 294.570312 619.078125 L 515.511719 619.078125 L 515.511719 577.652344 C 515.511719 516.738281 465.953125 467.179688 405.042969 467.179688 Z M 405.042969 467.179688 " fill-opacity="1" fill-rule="nonzero"/><path fill="#000000" d="M 467.179688 377.421875 C 467.179688 379.457031 467.082031 381.488281 466.882812 383.515625 C 466.683594 385.539062 466.382812 387.550781 465.988281 389.546875 C 465.589844 391.542969 465.097656 393.515625 464.503906 395.460938 C 463.914062 397.410156 463.230469 399.324219 462.449219 401.203125 C 461.671875 403.082031 460.800781 404.921875 459.84375 406.714844 C 458.882812 408.511719 457.839844 410.253906 456.707031 411.945312 C 455.578125 413.636719 454.367188 415.269531 453.074219 416.84375 C 451.785156 418.417969 450.417969 419.921875 448.980469 421.363281 C 447.542969 422.800781 446.035156 424.167969 444.460938 425.457031 C 442.890625 426.75 441.257812 427.960938 439.5625 429.089844 C 437.871094 430.222656 436.128906 431.265625 434.332031 432.226562 C 432.539062 433.183594 430.699219 434.054688 428.820312 434.832031 C 426.941406 435.613281 425.027344 436.296875 423.078125 436.886719 C 421.132812 437.476562 419.160156 437.972656 417.164062 438.367188 C 415.167969 438.765625 413.15625 439.0625 411.132812 439.265625 C 409.105469 439.464844 407.078125 439.5625 405.042969 439.5625 C 403.007812 439.5625 400.976562 439.464844 398.949219 439.265625 C 396.925781 439.0625 394.914062 438.765625 392.917969 438.367188 C 390.921875 437.972656 388.949219 437.476562 387.003906 436.886719 C 385.054688 436.296875 383.140625 435.613281 381.261719 434.832031 C 379.382812 434.054688 377.542969 433.183594 375.75 432.226562 C 373.953125 431.265625 372.210938 430.222656 370.519531 429.089844 C 368.824219 427.960938 367.191406 426.75 365.621094 425.457031 C 364.046875 424.167969 362.539062 422.800781 361.101562 421.363281 C 359.664062 419.921875 358.296875 418.417969 357.007812 416.84375 C 355.714844 415.269531 354.503906 413.636719 353.375 411.945312 C 352.242188 410.253906 351.199219 408.511719 350.238281 406.714844 C 349.28125 404.921875 348.410156 403.082031 347.632812 401.203125 C 346.851562 399.324219 346.167969 397.410156 345.578125 395.460938 C 344.984375 393.515625 344.492188 391.542969 344.09375 389.546875 C 343.699219 387.550781 343.398438 385.539062 343.199219 383.515625 C 343 381.488281 342.902344 379.457031 342.902344 377.421875 C 342.902344 375.386719 343 373.359375 343.199219 371.332031 C 343.398438 369.308594 343.699219 367.296875 344.09375 365.300781 C 344.492188 363.304688 344.984375 361.332031 345.578125 359.386719 C 346.167969 357.4375 346.851562 355.523438 347.632812 353.644531 C 348.410156 351.761719 349.28125 349.925781 350.238281 348.132812 C 351.199219 346.335938 352.242188 344.59375 353.375 342.898438 C 354.503906 341.207031 355.714844 339.574219 357.007812 338.003906 C 358.296875 336.429688 359.664062 334.921875 361.101562 333.484375 C 362.539062 332.042969 364.046875 330.679688 365.621094 329.390625 C 367.191406 328.097656 368.824219 326.886719 370.519531 325.757812 C 372.210938 324.625 373.953125 323.582031 375.75 322.621094 C 377.542969 321.660156 379.382812 320.792969 381.261719 320.015625 C 383.140625 319.234375 385.054688 318.550781 387.003906 317.960938 C 388.949219 317.367188 390.921875 316.875 392.917969 316.476562 C 394.914062 316.082031 396.925781 315.78125 398.949219 315.582031 C 400.976562 315.382812 403.007812 315.285156 405.042969 315.285156 C 407.078125 315.285156 409.105469 315.382812 411.132812 315.582031 C 413.15625 315.78125 415.167969 316.082031 417.164062 316.476562 C 419.160156 316.875 421.132812 317.367188 423.078125 317.960938 C 425.027344 318.550781 426.941406 319.234375 428.820312 320.015625 C 430.699219 320.792969 432.539062 321.660156 434.332031 322.621094 C 436.128906 323.582031 437.871094 324.625 439.5625 325.757812 C 441.257812 326.886719 442.890625 328.097656 444.460938 329.390625 C 446.035156 330.679688 447.542969 332.042969 448.980469 333.484375 C 450.417969 334.921875 451.785156 336.429688 453.074219 338.003906 C 454.367188 339.574219 455.578125 341.207031 456.707031 342.898438 C 457.839844 344.59375 458.882812 346.335938 459.84375 348.132812 C 460.800781 349.925781 461.671875 351.761719 462.449219 353.644531 C 463.230469 355.523438 463.914062 357.4375 464.503906 359.386719 C 465.097656 361.332031 465.589844 363.304688 465.988281 365.300781 C 466.382812 367.296875 466.683594 369.308594 466.882812 371.332031 C 467.082031 373.359375 467.179688 375.386719 467.179688 377.421875 Z M 467.179688 377.421875 " fill-opacity="1" fill-rule="nonzero"/><g clip-path="url(#cfc1e46d84)"><path fill="#000000" d="M 701.929688 688.121094 C 701.929688 695.75 695.75 701.929688 688.121094 701.929688 L 121.960938 701.929688 C 114.332031 701.929688 108.152344 695.75 108.152344 688.121094 L 108.152344 260.046875 L 52.917969 260.046875 L 52.917969 701.929688 C 52.917969 732.386719 77.695312 757.164062 108.152344 757.164062 L 701.929688 757.164062 C 732.386719 757.164062 757.167969 732.386719 757.167969 701.929688 L 757.167969 260.046875 L 701.929688 260.046875 Z M 701.929688 688.121094 " fill-opacity="1" fill-rule="nonzero"/></g><g clip-path="url(#a70db25d8d)"><path fill="#000000" d="M 653.601562 163.386719 C 665.019531 163.386719 674.3125 154.09375 674.3125 142.671875 L 674.3125 73.628906 C 674.3125 62.207031 665.019531 52.917969 653.601562 52.917969 C 642.179688 52.917969 632.886719 62.207031 632.886719 73.628906 L 632.886719 142.671875 C 632.886719 154.09375 642.179688 163.386719 653.601562 163.386719 Z M 653.601562 163.386719 " fill-opacity="1" fill-rule="nonzero"/></g></svg>